<svg viewBox="0 0 648 87" version="1.1" xmlns="http://www.w3.org/2000/svg" xmlns:xlink="http://www.w3.org/1999/xlink">
    <g id="Page-1" stroke="none" stroke-width="1" fill-rule="evenodd">
        <path d="M0,35.524 L5.457,35.524 L5.457,17.334 C5.457,5.885 11.021,0 21.4,0 C27.071,0 30.602,2.568 32.421,4.708 L26.964,13.696 C25.466,11.449 23.754,10.914 21.935,10.914 C18.725,10.914 16.799,13.375 16.799,19.581 L16.799,35.524 L28.248,35.524 L28.248,45.689 L16.799,45.689 L16.799,84.744 L5.457,84.744 L5.457,45.689 L0,45.689 L0,35.524 Z M29.384,60.134 C29.384,45.047 40.833,34.454 55.92,34.454 C71.007,34.454 82.456,45.047 82.456,60.134 C82.456,75.221 71.007,85.814 55.92,85.814 C40.833,85.814 29.384,75.221 29.384,60.134 Z M41.261,60.134 C41.261,69.336 47.681,75.649 55.92,75.649 C64.159,75.649 70.579,69.336 70.579,60.134 C70.579,50.932 64.159,44.619 55.92,44.619 C47.681,44.619 41.261,50.932 41.261,60.134 Z M115.478,47.936 C113.338,46.224 111.733,45.261 108.951,45.261 C103.173,45.261 100.819,49.969 100.819,57.031 L100.819,84.744 L89.37,84.744 L89.37,35.524 L100.819,35.524 L100.819,41.409 C103.708,37.022 107.881,34.347 112.054,34.347 C115.585,34.347 118.902,35.524 121.149,38.092 L115.478,47.936 Z M151.068,47.936 C148.928,46.224 147.323,45.261 144.541,45.261 C138.763,45.261 136.409,49.969 136.409,57.031 L136.409,84.744 L124.96,84.744 L124.96,35.524 L136.409,35.524 L136.409,41.409 C139.298,37.022 143.471,34.347 147.644,34.347 C151.175,34.347 154.492,35.524 156.739,38.092 L151.068,47.936 Z M205.062,72.439 C200.14,80.464 193.613,85.814 180.345,85.814 C165.151,85.814 155.2,75.007 155.2,60.134 C155.2,58.315 155.307,56.603 155.628,54.891 C157.661,42.8 166.756,34.454 180.88,34.454 C196.181,34.454 205.49,44.084 205.49,59.599 C205.49,60.455 205.49,61.632 205.383,62.809 L167.077,62.809 C167.933,71.797 173.39,76.291 180.88,76.291 C187.514,76.291 192.008,73.295 195.004,68.48 L205.062,72.439 Z M180.773,43.335 C173.818,43.335 168.361,47.508 167.291,54.784 L192.971,54.784 C192.222,47.829 188.263,43.335 180.773,43.335 Z M214.33,66.875 C219.573,73.295 225.137,76.612 229.096,76.612 C232.948,76.612 235.837,75.007 235.837,71.476 C235.837,66.875 230.487,64.949 224.923,62.809 C218.075,60.241 210.799,57.459 210.799,48.043 C210.799,38.841 218.824,34.454 227.812,34.454 C235.837,34.454 242.792,38.199 246.858,43.121 L240.545,50.076 C237.549,46.545 232.52,43.656 228.561,43.656 C224.602,43.656 221.82,44.94 221.82,48.043 C221.82,52.43 228.24,53.5 234.018,55.854 C240.973,58.636 247.607,62.381 247.607,70.834 C247.607,81.641 240.331,86.135 229.952,86.135 C220.322,86.135 212.618,80.785 207.589,73.616 L214.33,66.875 Z M250.924,35.524 L259.163,35.524 L259.163,18.404 L270.612,18.404 L270.612,35.524 L278.851,35.524 L278.851,45.689 L270.612,45.689 L270.612,84.744 L259.163,84.744 L259.163,45.689 L250.924,45.689 L250.924,35.524 Z M305.124,60.134 C305.124,43.977 316.252,34.454 329.092,34.454 C336.261,34.454 342.146,37.771 345.891,43.656 L345.891,1.284 L357.554,1.284 L357.554,84.744 L345.891,84.744 L345.891,76.612 C342.146,82.497 336.261,85.814 329.092,85.814 C316.252,85.814 305.124,76.291 305.124,60.134 Z M317.108,60.134 C317.108,69.978 323.849,75.756 331.874,75.756 C338.508,75.756 345.891,70.085 345.891,60.134 C345.891,50.183 338.508,44.512 331.874,44.512 C323.849,44.512 317.108,50.29 317.108,60.134 Z M363.357,15.943 C363.357,11.877 366.567,8.988 370.633,8.988 C374.699,8.988 378.016,11.877 378.016,15.943 C378.016,20.009 374.699,23.005 370.633,23.005 C366.567,23.005 363.357,20.009 363.357,15.943 Z M364.962,35.524 L376.411,35.524 L376.411,84.744 L364.962,84.744 L364.962,35.524 Z M395.951,60.134 C395.951,69.443 402.585,75.756 411.252,75.756 C418.314,75.756 424.841,72.225 427.302,67.517 L427.302,80.25 C423.878,83.781 417.672,85.814 410.717,85.814 C395.416,85.814 384.074,75.221 384.074,60.134 C384.074,45.047 395.416,34.454 410.717,34.454 C417.672,34.454 423.878,36.594 427.302,39.911 L427.302,52.751 C424.841,48.043 418.1,44.512 411.252,44.512 C402.585,44.512 395.951,51.039 395.951,60.134 Z M464.925,35.524 L479.156,35.524 L457.863,55.854 L481.296,84.744 L467.172,84.744 L446.842,59.813 L446.842,84.744 L435.5,84.744 L435.5,1.284 L446.842,1.284 L446.842,52.751 L464.925,35.524 Z M484.465,15.943 C484.465,11.877 487.675,8.988 491.741,8.988 C495.807,8.988 499.124,11.877 499.124,15.943 C499.124,20.009 495.807,23.005 491.741,23.005 C487.675,23.005 484.465,20.009 484.465,15.943 Z M486.07,35.524 L497.519,35.524 L497.519,84.744 L486.07,84.744 L486.07,35.524 Z M509.174,66.875 C514.417,73.295 519.981,76.612 523.94,76.612 C527.792,76.612 530.681,75.007 530.681,71.476 C530.681,66.875 525.331,64.949 519.767,62.809 C512.919,60.241 505.643,57.459 505.643,48.043 C505.643,38.841 513.668,34.454 522.656,34.454 C530.681,34.454 537.636,38.199 541.702,43.121 L535.389,50.076 C532.393,46.545 527.364,43.656 523.405,43.656 C519.446,43.656 516.664,44.94 516.664,48.043 C516.664,52.43 523.084,53.5 528.862,55.854 C535.817,58.636 542.451,62.381 542.451,70.834 C542.451,81.641 535.175,86.135 524.796,86.135 C515.166,86.135 507.462,80.785 502.433,73.616 L509.174,66.875 Z M544.871,60.134 C544.871,45.047 556.32,34.454 571.407,34.454 C586.494,34.454 597.943,45.047 597.943,60.134 C597.943,75.221 586.494,85.814 571.407,85.814 C556.32,85.814 544.871,75.221 544.871,60.134 Z M556.748,60.134 C556.748,69.336 563.168,75.649 571.407,75.649 C579.646,75.649 586.066,69.336 586.066,60.134 C586.066,50.932 579.646,44.619 571.407,44.619 C563.168,44.619 556.748,50.932 556.748,60.134 Z M635.529,54.784 C635.529,47.615 632.747,43.763 626.434,43.763 C619.907,43.763 615.52,48.257 615.52,54.784 L615.52,84.744 L603.857,84.744 L603.857,35.524 L615.52,35.524 L615.52,43.121 C618.409,37.771 623.545,34.454 630.286,34.454 C641.307,34.454 647.406,40.981 647.406,53.5 L647.406,84.744 L635.529,84.744 L635.529,54.784 Z" id="forrestdickison" fill="#000000" fill-rule="nonzero"></path>
    </g>
</svg>