<svg viewBox="0 0 204 27" version="1.1" xmlns="http://www.w3.org/2000/svg" xmlns:xlink="http://www.w3.org/1999/xlink">
    <g id="Page-1" stroke="none" stroke-width="1">
        <path d="M0.992,11.28 L2.624,11.28 L2.624,5.84 C2.624,2.416 4.288,0.656 7.392,0.656 C9.088,0.656 10.144,1.424 10.688,2.064 L9.056,4.752 C8.608,4.08 8.096,3.92 7.552,3.92 C6.592,3.92 6.016,4.656 6.016,6.512 L6.016,11.28 L9.44,11.28 L9.44,14.32 L6.016,14.32 L6.016,26 L2.624,26 L2.624,14.32 L0.992,14.32 L0.992,11.28 Z M10.296,18.64 C10.296,14.128 13.72,10.96 18.232,10.96 C22.744,10.96 26.168,14.128 26.168,18.64 C26.168,23.152 22.744,26.32 18.232,26.32 C13.72,26.32 10.296,23.152 10.296,18.64 Z M13.848,18.64 C13.848,21.392 15.768,23.28 18.232,23.28 C20.696,23.28 22.616,21.392 22.616,18.64 C22.616,15.888 20.696,14 18.232,14 C15.768,14 13.848,15.888 13.848,18.64 Z M36.56,14.992 C35.92,14.48 35.44,14.192 34.608,14.192 C32.88,14.192 32.176,15.6 32.176,17.712 L32.176,26 L28.752,26 L28.752,11.28 L32.176,11.28 L32.176,13.04 C33.04,11.728 34.288,10.928 35.536,10.928 C36.592,10.928 37.584,11.28 38.256,12.048 L36.56,14.992 Z M47.72,14.992 C47.08,14.48 46.6,14.192 45.768,14.192 C44.04,14.192 43.336,15.6 43.336,17.712 L43.336,26 L39.912,26 L39.912,11.28 L43.336,11.28 L43.336,13.04 C44.2,11.728 45.448,10.928 46.696,10.928 C47.752,10.928 48.744,11.28 49.416,12.048 L47.72,14.992 Z M64.384,22.32 C62.912,24.72 60.96,26.32 56.992,26.32 C52.448,26.32 49.472,23.088 49.472,18.64 C49.472,18.096 49.504,17.584 49.6,17.072 C50.208,13.456 52.928,10.96 57.152,10.96 C61.728,10.96 64.512,13.84 64.512,18.48 C64.512,18.736 64.512,19.088 64.48,19.44 L53.024,19.44 C53.28,22.128 54.912,23.472 57.152,23.472 C59.136,23.472 60.48,22.576 61.376,21.136 L64.384,22.32 Z M57.12,13.616 C55.04,13.616 53.408,14.864 53.088,17.04 L60.768,17.04 C60.544,14.96 59.36,13.616 57.12,13.616 Z M67.672,20.656 C69.24,22.576 70.904,23.568 72.088,23.568 C73.24,23.568 74.104,23.088 74.104,22.032 C74.104,20.656 72.504,20.08 70.84,19.44 C68.792,18.672 66.616,17.84 66.616,15.024 C66.616,12.272 69.016,10.96 71.704,10.96 C74.104,10.96 76.184,12.08 77.4,13.552 L75.512,15.632 C74.616,14.576 73.112,13.712 71.928,13.712 C70.744,13.712 69.912,14.096 69.912,15.024 C69.912,16.336 71.832,16.656 73.56,17.36 C75.64,18.192 77.624,19.312 77.624,21.84 C77.624,25.072 75.448,26.416 72.344,26.416 C69.464,26.416 67.16,24.816 65.656,22.672 L67.672,20.656 Z M77.936,11.28 L80.4,11.28 L80.4,6.16 L83.824,6.16 L83.824,11.28 L86.288,11.28 L86.288,14.32 L83.824,14.32 L83.824,26 L80.4,26 L80.4,14.32 L77.936,14.32 L77.936,11.28 Z M95.7759999,18.64 C95.7759999,13.808 99.1039999,10.96 102.944,10.96 C105.088,10.96 106.848,11.952 107.968,13.712 L107.968,1.04 L111.456,1.04 L111.456,26 L107.968,26 L107.968,23.568 C106.848,25.328 105.088,26.32 102.944,26.32 C99.1039999,26.32 95.7759999,23.472 95.7759999,18.64 Z M99.3599999,18.64 C99.3599999,21.584 101.376,23.312 103.776,23.312 C105.76,23.312 107.968,21.616 107.968,18.64 C107.968,15.664 105.76,13.968 103.776,13.968 C101.376,13.968 99.3599999,15.696 99.3599999,18.64 Z M114.904,5.424 C114.904,4.208 115.864,3.344 117.08,3.344 C118.296,3.344 119.288,4.208 119.288,5.424 C119.288,6.64 118.296,7.536 117.08,7.536 C115.864,7.536 114.904,6.64 114.904,5.424 Z M115.384,11.28 L118.808,11.28 L118.808,26 L115.384,26 L115.384,11.28 Z M125.168,18.64 C125.168,21.424 127.152,23.312 129.744,23.312 C131.856,23.312 133.808,22.256 134.544,20.848 L134.544,24.656 C133.52,25.712 131.664,26.32 129.584,26.32 C125.008,26.32 121.616,23.152 121.616,18.64 C121.616,14.128 125.008,10.96 129.584,10.96 C131.664,10.96 133.52,11.6 134.544,12.592 L134.544,16.432 C133.808,15.024 131.792,13.968 129.744,13.968 C127.152,13.968 125.168,15.92 125.168,18.64 Z M146.312,11.28 L150.568,11.28 L144.2,17.36 L151.208,26 L146.984,26 L140.904,18.544 L140.904,26 L137.512,26 L137.512,1.04 L140.904,1.04 L140.904,16.432 L146.312,11.28 Z M152.672,5.424 C152.672,4.208 153.632,3.344 154.848,3.344 C156.064,3.344 157.056,4.208 157.056,5.424 C157.056,6.64 156.064,7.536 154.848,7.536 C153.632,7.536 152.672,6.64 152.672,5.424 Z M153.152,11.28 L156.576,11.28 L156.576,26 L153.152,26 L153.152,11.28 Z M161.176,20.656 C162.744,22.576 164.408,23.568 165.592,23.568 C166.744,23.568 167.608,23.088 167.608,22.032 C167.608,20.656 166.008,20.08 164.344,19.44 C162.296,18.672 160.12,17.84 160.12,15.024 C160.12,12.272 162.52,10.96 165.208,10.96 C167.608,10.96 169.688,12.08 170.904,13.552 L169.016,15.632 C168.12,14.576 166.616,13.712 165.432,13.712 C164.248,13.712 163.416,14.096 163.416,15.024 C163.416,16.336 165.336,16.656 167.064,17.36 C169.144,18.192 171.128,19.312 171.128,21.84 C171.128,25.072 168.952,26.416 165.848,26.416 C162.968,26.416 160.664,24.816 159.16,22.672 L161.176,20.656 Z M172.368,18.64 C172.368,14.128 175.792,10.96 180.304,10.96 C184.816,10.96 188.24,14.128 188.24,18.64 C188.24,23.152 184.816,26.32 180.304,26.32 C175.792,26.32 172.368,23.152 172.368,18.64 Z M175.92,18.64 C175.92,21.392 177.84,23.28 180.304,23.28 C182.768,23.28 184.688,21.392 184.688,18.64 C184.688,15.888 182.768,14 180.304,14 C177.84,14 175.92,15.888 175.92,18.64 Z M200.296,17.04 C200.296,14.896 199.464,13.744 197.576,13.744 C195.624,13.744 194.312,15.088 194.312,17.04 L194.312,26 L190.824,26 L190.824,11.28 L194.312,11.28 L194.312,13.552 C195.176,11.952 196.712,10.96 198.728,10.96 C202.024,10.96 203.848,12.912 203.848,16.656 L203.848,26 L200.296,26 L200.296,17.04 Z" id="forrestdickison" fill="#000000" fill-rule="nonzero"></path>
    </g>
</svg>
